<?xml version="1.0" standalone="no"?>
<!DOCTYPE svg PUBLIC "-//W3C//DTD SVG 20010904//EN"
 "http://www.w3.org/TR/2001/REC-SVG-20010904/DTD/svg10.dtd">
<svg version="1.0" xmlns="http://www.w3.org/2000/svg"
 width="904.000000pt" height="904.000000pt" viewBox="0 0 904.000000 904.000000"
 preserveAspectRatio="xMidYMid meet">
<metadata>
Created by potrace 1.11, written by Peter Selinger 2001-2013
</metadata>
<g transform="translate(0.000000,904.000000) scale(0.100000,-0.100000)"
fill="#000000" stroke="none">
<path d="M3840 8994 c-7 -27 -23 -87 -36 -134 -23 -86 -73 -282 -79 -310 -2
-8 -4 -15 -5 -15 -1 0 -3 -7 -5 -15 -1 -8 -17 -69 -35 -135 -17 -66 -34 -128
-36 -137 -2 -10 -6 -27 -9 -38 -3 -11 -7 -29 -10 -40 -3 -11 -7 -29 -10 -40
-3 -11 -7 -28 -9 -37 -3 -10 -30 -112 -60 -227 -31 -115 -58 -218 -61 -230 -2
-11 -9 -37 -14 -56 -5 -19 -29 -114 -55 -210 -25 -96 -57 -218 -71 -270 -20
-77 -85 -328 -101 -390 -7 -29 -75 -286 -100 -380 -14 -52 -28 -106 -30 -120
-3 -14 -17 -65 -31 -115 -14 -49 -26 -97 -28 -105 -2 -8 -42 -163 -90 -345
-47 -181 -89 -341 -91 -355 -3 -14 -16 -63 -29 -110 -30 -108 -305 -1164 -310
-1191 -2 -11 -7 -30 -11 -42 -6 -20 -5 -21 12 -7 10 8 25 22 34 30 9 8 51 47
95 85 43 39 86 77 95 85 8 8 47 42 85 75 39 33 75 65 80 71 6 5 48 44 95 85
47 40 87 76 90 79 3 3 46 41 95 85 50 44 92 82 95 85 3 3 43 39 90 80 47 41
90 80 96 85 6 6 39 35 74 65 34 30 72 64 84 75 91 83 180 161 196 172 18 13
20 12 21 -4 0 -10 2 -25 4 -33 4 -18 87 -335 115 -437 27 -99 92 -350 95 -365
2 -9 15 -61 30 -115 15 -54 28 -105 30 -113 2 -8 18 -69 35 -135 17 -66 35
-136 40 -155 5 -19 23 -89 40 -155 18 -66 33 -124 34 -130 2 -5 8 -30 15 -55
7 -25 14 -52 16 -60 2 -8 24 -96 50 -195 26 -99 49 -187 51 -195 2 -8 19 -73
38 -145 19 -71 52 -200 74 -285 23 -85 52 -198 66 -250 14 -52 43 -165 65
-250 22 -85 52 -200 67 -255 14 -55 27 -107 29 -115 2 -8 11 -42 20 -75 9 -33
18 -68 20 -77 2 -10 18 -71 35 -135 44 -163 88 -335 115 -443 2 -8 23 -85 45
-170 22 -85 59 -225 81 -310 22 -85 54 -206 70 -269 17 -63 32 -123 35 -134 2
-11 6 -22 8 -25 7 -6 10 3 34 103 11 44 36 142 57 218 20 76 38 147 40 158 2
12 7 29 10 39 3 10 8 27 10 37 2 10 20 77 40 148 19 72 37 139 39 150 2 11 12
49 21 85 9 36 19 76 22 89 2 14 6 28 9 33 3 4 7 16 9 25 2 10 22 90 45 178 23
88 43 167 45 175 2 8 31 120 65 247 34 128 63 241 65 250 3 10 29 113 60 228
30 116 57 219 59 230 3 11 12 47 21 80 19 71 85 323 91 345 2 8 8 33 14 55 6
22 12 47 14 55 2 8 25 95 51 193 26 99 48 186 50 195 2 10 27 103 55 207 27
105 52 199 54 210 6 25 8 32 51 195 20 74 53 203 75 285 21 83 57 221 80 309
23 87 43 166 45 175 6 25 40 153 74 280 17 63 29 116 27 118 -2 2 -32 -22 -68
-54 -35 -32 -97 -87 -138 -123 -40 -36 -78 -69 -84 -75 -6 -5 -50 -44 -96 -85
-47 -41 -87 -77 -90 -80 -3 -3 -66 -59 -140 -125 -74 -66 -151 -134 -170 -151
-19 -17 -82 -73 -140 -124 -58 -51 -126 -111 -151 -134 -25 -23 -81 -72 -125
-111 -43 -38 -89 -80 -101 -92 l-22 -21 -10 31 c-6 18 -29 102 -51 187 -43
162 -44 166 -55 215 -4 17 -16 61 -27 99 -11 38 -21 77 -23 87 -8 38 -226 871
-235 894 -5 14 -8 25 -5 25 2 0 -1 15 -6 33 -11 36 -70 263 -134 507 -23 91
-66 255 -95 365 -85 329 -96 370 -159 615 -34 129 -66 251 -71 270 -11 37
-129 484 -135 510 -2 8 -15 60 -29 115 -15 55 -28 107 -30 115 -11 44 -116
447 -173 660 -35 135 -66 256 -69 270 -2 14 -10 45 -18 69 l-13 44 -13 -49z"/>
</g>
</svg>
